<svg xmlns="http://www.w3.org/2000/svg" width="151.44" height="297.43" viewBox="0 0 151.44 297.43"><title>tamaBody</title><g id="bb3af122-40b1-40f6-88da-47a608ac0730" data-name="レイヤー 2"><g id="f8fba685-6b3b-4f4f-b52c-0c874154247a" data-name="tamasan"><path d="M88.31,261.53c-6.6-.4-9.9,12.8-7.8,21.8s4.1,13.9,7.2,14.1,4.4-11.2,4.8-18.6S94.91,261.93,88.31,261.53Z" fill="#fff7f1"/><path d="M88.11,297.43h-.6c-4.8-.3-7.1-6.1-9.4-16-1.8-7.5-.1-17,3.7-21.6a7.75,7.75,0,0,1,6.6-3.2,6.92,6.92,0,0,1,5,2.3c2.8,3.2,2.3,8.9,1.8,14.3-.1,1.1-.2,2.2-.3,3.2-1,16.7-3.8,19.1-4.7,19.9A2.92,2.92,0,0,1,88.11,297.43Zm-.3-35.8a3,3,0,0,0-2.2,1.4c-2.9,3.4-4.1,11.4-2.7,17.3.8,3.3,2.7,10.6,4.4,12,.9-1.6,2.1-6.6,2.7-16.1.1-1.1.2-2.3.3-3.4.3-4,.8-9-.7-10.6a2,2,0,0,0-1.5-.6h0c0-.1-.2-.1-.3,0Z" fill="#71695d"/><path d="M73.21,261.53c-6.6-.4-9.9,12.8-7.8,21.8s4.1,13.9,7.2,14.1,4.4-11.2,4.8-18.6S79.81,261.93,73.21,261.53Z" fill="#fff7f1"/><path d="M73,297.43h-.6c-4.8-.3-7.1-6.1-9.4-16-1.8-7.5-.2-17,3.7-21.6a7.75,7.75,0,0,1,6.6-3.2h0a6.92,6.92,0,0,1,5,2.3c2.8,3.2,2.3,8.9,1.8,14.3-.1,1.1-.2,2.2-.3,3.2-1,16.7-3.7,19.1-4.7,19.9A2.36,2.36,0,0,1,73,297.43Zm-.2-35.8a3,3,0,0,0-2.2,1.4c-2.9,3.5-4.1,11.4-2.7,17.3.8,3.3,2.7,10.6,4.4,12,.9-1.6,2.1-6.6,2.7-16.1.1-1.1.2-2.3.3-3.4.3-4,.8-9-.7-10.6a2,2,0,0,0-1.5-.6Z" fill="#71695d"/><path d="M105.11,117.83c18,30.4,42.4,90.8,42.9,105.4s-6.3,27.8-15,34.2-40.8,19.8-68.1,16.5-53.4-16.7-59.7-26.3-4.2-25,2.6-36.7,39.5-65.4,44.2-90.4c1.1-9,10.4-17.9,14.9-12.9s-1.4,19.8,8.9,21.2S96.11,128,105.11,117.83Z" fill="#77bfb2"/><path d="M82.71,276.53a82.42,82.42,0,0,1-17.2-.2c-28.3-3.5-54.6-17-61.4-27.4-6.3-9.8-5.3-25.9,2.6-39.3.5-.9,1.1-1.9,1.9-3.2,9.3-15.7,37.7-63.6,42-86.3.9-7,6.3-14.3,11.8-16.1a6.85,6.85,0,0,1,7.4,1.9c2.3,2.6,2.5,6.6,2.7,10.5.3,6.5.8,9.3,4.6,9.8,11.2,1.5,19.5-1.7,27.1-10.2a2.51,2.51,0,0,1,3.5-.2,2.65,2.65,0,0,1,.5.6c18,30.5,42.7,91.3,43.2,106.6.5,14.4-5.9,28.9-16,36.3C128.31,264.63,105.91,274.63,82.71,276.53Zm-18.1-167.8a1.85,1.85,0,0,0-.7.2c-3.3,1-7.7,6.5-8.3,12v.2c-4.4,23.6-33.2,72.1-42.6,88-.7,1.2-1.4,2.3-1.9,3.1-6.9,11.8-8,25.8-2.7,34.1s29.9,21.8,57.8,25.2c26.7,3.3,58.3-10.1,66.4-16,7.3-5.4,14.5-17.3,14-32.1-.5-12.9-22.5-69.1-40.9-101.4-8.1,7.9-17.5,10.9-29.1,9.3-8.3-1.1-8.7-8.9-8.9-14.6-.1-3-.3-6.2-1.4-7.4A2,2,0,0,0,64.61,108.73Z" fill="#71695d"/><path d="M13.91,215.33c-3.5.4-6.9,2.3-10.2,4.9-3.2,9.7-3.2,20.2,1.5,27.4,6.3,9.6,32.2,22.9,59.6,26.3s59.4-10.1,68.1-16.5,15.5-19.6,15-34.2c-.1-3.4-1.6-9.5-4-17.1-9.5-3.4-14.8,2.2-16.4,16.7-1.9,17.2-20.1,28.1-30.9,18.9s-22.9-12.3-32.7-2.3-18.4,23.6-31.4-7.3C26.91,218.63,20.41,214.53,13.91,215.33Z" fill="#405d70"/><path d="M82.71,276.53a82.42,82.42,0,0,1-17.2-.2c-28.3-3.5-54.6-17-61.4-27.4-6.3-9.8-5.3-25.9,2.6-39.3.5-.9,1.1-1.9,1.9-3.2,9.3-15.7,37.7-63.6,42-86.3.9-7,6.3-14.3,11.8-16.1a6.85,6.85,0,0,1,7.4,1.9c2.3,2.6,2.5,6.6,2.7,10.5.3,6.5.8,9.3,4.6,9.8,11.2,1.5,19.5-1.7,27.1-10.2a2.51,2.51,0,0,1,3.5-.2,2.65,2.65,0,0,1,.5.6c18,30.5,42.7,91.3,43.2,106.6.5,14.4-5.9,28.9-16,36.3C128.31,264.63,105.91,274.63,82.71,276.53Zm-18.1-167.8a1.85,1.85,0,0,0-.7.2c-3.3,1-7.7,6.5-8.3,12v.2c-4.4,23.6-33.2,72.1-42.6,88-.7,1.2-1.4,2.3-1.9,3.1-6.9,11.8-8,25.8-2.7,34.1s29.9,21.8,57.8,25.2c26.7,3.3,58.3-10.1,66.4-16,7.3-5.4,14.5-17.3,14-32.1-.5-12.9-22.5-69.1-40.9-101.4-8.1,7.9-17.5,10.9-29.1,9.3-8.3-1.1-8.7-8.9-8.9-14.6-.1-3-.3-6.2-1.4-7.4A2,2,0,0,0,64.61,108.73Z" fill="#405d70"/><path d="M78.41,100.43c-7.2.3-17.6,1.7-21.3,20.9s2.6,38,23.6,35.6,35.1-17.8,27.6-32S85.71,100.13,78.41,100.43Z" fill="#fff7f1"/><path d="M79.91,159.53c-8,.7-14.6-1.6-19.2-6.6-6.4-6.9-8.6-18.6-6-32.1,3.8-19.5,14.1-22.5,23.6-22.9,8.4-.3,24.2,10.8,32.2,25.8a19.17,19.17,0,0,1,0,18.3c-4.8,9.1-16.1,15.8-29.5,17.3ZM76.21,103c-5.8.5-13.5,2.8-16.6,18.8-2.3,11.7-.5,22.1,4.8,27.8,3.8,4,9.2,5.7,16.1,4.9,11.6-1.3,21.7-7.1,25.7-14.7a13.93,13.93,0,0,0,0-13.7,54.49,54.49,0,0,0-14.4-16.9c-5-3.9-10.2-6.4-13.2-6.3h0C77.81,102.93,77,103,76.21,103Z" fill="#71695d"/><path d="M84.21,23c1.1-5.2,18-22,23.3-20.3s8.6,24.6,6.7,29.5-10.4,5.3-17.3,2.2S83.11,28.23,84.21,23Z" fill="#978f83"/><path d="M105.71,38.83a22.91,22.91,0,0,1-10-2.3l-.7-.3c-7.3-3.3-14.8-6.8-13.3-13.8h0C82.91,17.23,94,6,101,1.93c3-1.7,5.4-2.3,7.2-1.7s3.3,2.2,4.6,5c3.5,7.4,5.5,23,3.6,27.8a8.46,8.46,0,0,1-5,4.8A13.73,13.73,0,0,1,105.71,38.83Zm-19-15.3c-.6,2.9,3.8,5.2,10.5,8.3l.7.3c4.1,1.9,8.8,2.4,11.8,1.2a3.37,3.37,0,0,0,2.2-2c.7-1.6.6-7.6-.7-14.3-1.6-8.3-3.7-11.7-4.5-12s-4.7,1.4-10.9,7.2c-5.2,4.9-8.8,9.7-9.1,11.3Z" fill="#71695d"/><path d="M21.71,93.23c2.3-15.3,7.8-48.1,34.8-60,18-7.9,40.3-9.9,54.9,1.3,9.1,7,18.6,27,20.5,43.2s-3.4,42.8-18.9,50.8c-17.4,8.9-71.2,2.5-83.9-7.2C20.81,114.93,19.41,108.53,21.71,93.23Z" fill="#978f83"/><path d="M86.11,135.23c-22.5,0-49.5-5.1-58.5-11.9-9.8-7.5-10.5-15.8-8.4-30.4h0c2-13.4,7.2-49.2,36.2-61.9a76.54,76.54,0,0,1,29.7-6.7c10.9-.1,20.5,2.8,27.7,8.3,9.6,7.4,19.4,27.9,21.5,44.9,2,16.3-3.1,44.5-20.2,53.3C108.11,133.83,97.71,135.23,86.11,135.23Zm-61.9-41.7c-2.2,14.9-.9,20.2,6.5,25.8,5.6,4.3,21.3,8.4,39,10.1,18.7,1.8,34.9.6,42.3-3.1,4.5-2.3,10.7-7.7,14.7-20.8a69.14,69.14,0,0,0,2.8-27.5c-1.9-15.6-11-35-19.6-41.6-9.6-7.3-28.4-11.4-52.4-.9C31,47.13,26,80.83,24.21,93.53Z" fill="#71695d"/><path d="M112.71,53.43c10.1,14.6,20.9,55,1.7,72.6-15.3,14-69.8,14-75.4-12.8s11.1-71.5,36.3-73.7S104.61,41.73,112.71,53.43Z" fill="#fff7f1"/><path d="M110.11,119.93c-.7,1.4-1.2,3.8,1.1,7l2.7-1.9c-.13-.2-.24-.38-.34-.56,1.35-.45,3.62-3.46,4.74-5.14a6.29,6.29,0,0,0,.47-.82,12.89,12.89,0,0,1,2.53-.18V115C117.81,115,112,116.23,110.11,119.93Z" fill="#e47b7b"/><path d="M80.81,137.83a72.94,72.94,0,0,1-22.3-3.2c-12.4-4-20-11.2-22-20.7-3.9-18.6,2.4-44.9,14.7-61.4,7-9.4,15.2-14.7,23.9-15.5,26.6-2.3,31.4,2.9,39.7,15h0c4.9,7.1,10.6,21.1,12.3,36.3,2.4,22.1-4.6,33.7-11,39.5C109.11,134.23,95.11,137.83,80.81,137.83Zm5.4-96.4c-3,0-6.6.2-10.7.5-9.1.8-16.1,7.8-20.3,13.5-11.3,15.2-17.3,40.3-13.8,57.3,2,9.7,11.3,14.6,18.7,17,17.6,5.7,43.2,3,52.6-5.6,5.5-5,11.6-15.2,9.4-35.3-1.6-14.4-6.9-27.5-11.4-34.1h0C104.51,46,101.41,41.43,86.21,41.43Z" fill="#71695d"/><path d="M70.51,34.23c1-7.3-26-20.9-31-15.9s-10.1,49.1-3,49.7,13.7-12.8,18.4-18.3C59.51,44.53,69.51,41.63,70.51,34.23Z" fill="#fff4e3"/><path d="M37,70.43h-.7c-1.3-.1-3.2-.9-4.4-4-2.5-6.8-1-22.1-.4-26.7s2.6-19.5,6.2-23.2c4.3-4.4,15.2.2,19.6,2.4,2.8,1.4,16.5,8.4,15.6,15.6-.8,5.9-5.8,9.2-10.2,12.2a32.34,32.34,0,0,0-5.9,4.6c-1.2,1.3-2.5,3.3-4,5.3C48.31,63.23,43.21,70.43,37,70.43Zm5.9-50.7a2.28,2.28,0,0,0-1.6.4c-2.3,2.4-6.2,22.2-5.8,36.8.2,6.3,1.1,8.2,1.5,8.7,3.7,0,8.3-6.7,11.8-11.6,1.5-2.2,3-4.2,4.3-5.8a33.38,33.38,0,0,1,6.9-5.5c3.9-2.6,7.6-5.1,8.1-8.7h0c.2-1.4-3.9-6.2-12.8-10.5C49.51,20.63,45.21,19.73,42.91,19.73Z" fill="#71695d"/><path d="M97.51,99.93c-2.8-.1-4.7,6-5,8.4-.7,6.6,9.1,6.5,8.6,0C100.81,104.23,100.41,100.13,97.51,99.93Z" fill="#71695d"/><path d="M41.81,20c6.7,2.6,17.4,20.2,15,27.9,10.9-7.4,15.5-13.5,12.3-17.4s-12.4-9.8-17.6-11.6C42.41,15.73,35.11,17.43,41.81,20Z" fill="#978f83"/><path d="M56.81,50.33a2.54,2.54,0,0,1-2.5-2.5,1.7,1.7,0,0,1,.1-.7c1.9-6.2-7.8-22.6-13.5-24.8-2.4-.9-5-2.5-4-5.1,1.6-4.3,11.7-1.9,15.5-.6,5.3,1.8,15,7.9,18.7,12.4a6.66,6.66,0,0,1,1.5,5.4c-.7,4.5-5.3,9.5-14.3,15.6A3.34,3.34,0,0,1,56.81,50.33ZM46.51,20c5.7,4.9,11.7,15.1,12.9,22.9,6.9-5.2,8-8.2,8.2-9.3a1.6,1.6,0,0,0-.4-1.5c-2.8-3.4-11.4-9.1-16.4-10.8A21.34,21.34,0,0,0,46.51,20Z" fill="#71695d"/><path d="M95.31,119.33c-.4.3-.5,1-.5,1.9-1.3,0-2,.2-2,1.1s.8,1,2.1.9a9,9,0,0,1-.2,2.3h0c-1.4,0-2.1.2-2.1,1.1,0,.7.7.9,1.7.9-.3,1.5-.2,2.2.8,2s1.2-1,1.3-2.2l.8-.1c.5-.1,1.1-.1,1.7-.2-.3,1.5-.2,2.2.9,2s1.2-1,1.3-2.2c1.5-.2,2.7-.4,2.7-1.1a.75.75,0,0,0-.1-.5c-.3-.4-1.3-.3-2.5-.1v-.6a14.08,14.08,0,0,1,.1-2c1.5-.2,2.7-.4,2.7-1.1a.75.75,0,0,0-.1-.5c-.3-.4-1.3-.3-2.5-.1,0-1.3-.1-2.2-.8-2.2a1.42,1.42,0,0,0-.6.2c-.5.4-.5,1.2-.5,2.3a7.41,7.41,0,0,1-2.1.1h-.6c0-1.3-.1-2.2-.8-2.1A.57.57,0,0,0,95.31,119.33Zm1.4,3.7.9-.1c.6-.1,1.3-.1,2-.2a8.2,8.2,0,0,1-.2,2.2c0,.2-.1.3-.1.4a15,15,0,0,1-2.2.2h-.6V125c.1-.7.1-1.4.2-2Z" fill="#e47b7b"/><path d="M95.31,119.33c-.4.3-.5,1-.5,1.9-1.3,0-2,.2-2,1.1s.8,1,2.1.9a9,9,0,0,1-.2,2.3h0c-1.4,0-2.1.2-2.1,1.1,0,.7.7.9,1.7.9-.3,1.5-.2,2.2.8,2s1.2-1,1.3-2.2l.8-.1c.5-.1,1.1-.1,1.7-.2-.3,1.5-.2,2.2.9,2s1.2-1,1.3-2.2c1.5-.2,2.7-.4,2.7-1.1a.75.75,0,0,0-.1-.5c-.3-.4-1.3-.3-2.5-.1v-.6a14.08,14.08,0,0,1,.1-2c1.5-.2,2.7-.4,2.7-1.1a.75.75,0,0,0-.1-.5c-.3-.4-1.3-.3-2.5-.1,0-1.3-.1-2.2-.8-2.2a1.42,1.42,0,0,0-.6.2c-.5.4-.5,1.2-.5,2.3a7.41,7.41,0,0,1-2.1.1h-.6c0-1.3-.1-2.2-.8-2.1A.57.57,0,0,0,95.31,119.33Zm1.4,3.7.9-.1c.6-.1,1.3-.1,2-.2a8.2,8.2,0,0,1-.2,2.2c0,.2-.1.3-.1.4a15,15,0,0,1-2.2.2h-.6V125c.1-.7.1-1.4.2-2Z" fill="#e47b7b"/><path d="M95.31,119.33c-.4.3-.5,1-.5,1.9-1.3,0-2,.2-2,1.1s.8,1,2.1.9a9,9,0,0,1-.2,2.3h0c-1.4,0-2.1.2-2.1,1.1,0,.7.7.9,1.7.9-.3,1.5-.2,2.2.8,2s1.2-1,1.3-2.2l.8-.1c.5-.1,1.1-.1,1.7-.2-.3,1.5-.2,2.2.9,2s1.2-1,1.3-2.2c1.5-.2,2.7-.4,2.7-1.1a.75.75,0,0,0-.1-.5c-.3-.4-1.3-.3-2.5-.1v-.6a14.08,14.08,0,0,1,.1-2c1.5-.2,2.7-.4,2.7-1.1a.75.75,0,0,0-.1-.5c-.3-.4-1.3-.3-2.5-.1,0-1.3-.1-2.2-.8-2.2a1.42,1.42,0,0,0-.6.2c-.5.4-.5,1.2-.5,2.3a7.41,7.41,0,0,1-2.1.1h-.6c0-1.3-.1-2.2-.8-2.1A.57.57,0,0,0,95.31,119.33Zm1.4,3.7.9-.1c.6-.1,1.3-.1,2-.2a8.2,8.2,0,0,1-.2,2.2c0,.2-.1.3-.1.4a15,15,0,0,1-2.2.2h-.6V125c.1-.7.1-1.4.2-2Z" fill="#e47b7b"/></g></g></svg>