<svg xmlns="http://www.w3.org/2000/svg" width="131.88" height="186.81" viewBox="0 0 131.88 186.81"><title>tamaFront</title><g id="ed6def2e-b178-4b02-89ee-707698c041c7" data-name="レイヤー 2"><g id="b8d84433-25e0-41ce-805c-ff7e0dd202cc" data-name="tamasan"><g id="be9bb6c2-94ac-4068-9d95-a57055ec92fc" data-name="Arm"><path d="M107.7,154.81c5.8,1.6,24.5,9.3,21.4,17.6s-26.3,3.9-30.8-2.2S101.9,153.31,107.7,154.81Z" fill="#fff7f1"/><path d="M118.5,179.51c-8.2,0-18.8-3.1-22.3-7.8-2.7-3.6-2.4-8.8.8-13.6,2.5-3.7,7-6.9,11.3-5.7,3.8,1,18.6,6.4,22.6,14.1a8.47,8.47,0,0,1,.5,6.8c-.8,2.2-3.1,5.1-9.2,6A23,23,0,0,1,118.5,179.51Zm-12-22.3c-1.6,0-3.8,1.5-5.3,3.8s-2.6,5.5-1,7.8c2.4,3.2,13.6,6.7,21.2,5.6,1.7-.2,4.6-.9,5.3-2.8a3.2,3.2,0,0,0-.3-2.7c-2.5-4.9-13.8-10.1-19.4-11.6h0a.75.75,0,0,0-.5-.1Z" fill="#71695d"/><path d="M61.2,100.21c-9.6,2.9-14.2,14.5-15.3,29.9s-3.6,45,10.2,50.8,41.7,6.8,60.1-19,11.3-31.2,6.4-33.8c-6.8-3.6-22.7-8.5-35.6-15.3C74.8,106.21,70.1,97.51,61.2,100.21Z" fill="#77bfb2"/><path d="M102,119.51c-.1,8.7,4.7,21.2-5.8,18.3-15.4-4.2-18.5,4-16.3,16.2s-16,6.8-21.7,3.2c-3.6-2.3-8.9-4.4-13-2,.6,11.5,3.1,22.3,10.9,25.6,13.8,5.8,41.7,6.8,60.1-19s11.3-31.2,6.4-33.8C118.5,125.81,110.5,122.91,102,119.51Z" fill="#405d70"/><path d="M74.4,186.81a50.37,50.37,0,0,1-19.2-3.6c-15.1-6.4-13.1-35-11.8-52.1l.1-1.2c1.3-18,7.2-29.1,17-32.1,6.9-2.1,11.7,1.6,17.3,5.8a78.11,78.11,0,0,0,10.4,6.9,207.1,207.1,0,0,0,22.7,9.8,123.46,123.46,0,0,1,13,5.5c1.6.9,5.4,2.9,6.5,7.7,1.5,6.5-2.4,16.3-12.1,29.8C105.4,181.51,88.4,186.81,74.4,186.81Zm-10-84.6a7.27,7.27,0,0,0-2.5.4h0c-9.7,2.9-12.7,16.7-13.5,27.7l-.1,1.2c-1.1,14.7-3,42.1,8.8,47.1s38.8,7.5,57.1-18.2c10.8-15.1,12.1-22.4,11.3-25.8-.5-2.2-1.9-3.3-4-4.4a126.8,126.8,0,0,0-12.4-5.2,216.88,216.88,0,0,1-23.2-10.1,73.91,73.91,0,0,1-11.1-7.4c-4.5-3.4-7.2-5.3-10.4-5.3Z" fill="#405d70"/></g><g id="a95f16b2-8ef5-4d0e-9c8b-514ac8018069" data-name="FrontHair"><path d="M128.4,44.51c-3.5,7.8-16.8,18.5-16.2,2.9-8,10.6-9.4,5.5-8-2.2C96.5,65,81.1,86.91,74.1,99.71c-9.2,16.9-19,24.5-36.8,26.9-10.3,1.3-22.4-4.2-27.9-11.8-4.8-6.8-7.2-18.9-2.2-30.7,3.7-8.7,16-16.7,26.3-15.5,0,0,5.7-29.7,17.9-47.8,6.7-9.9,22-21.1,33.9-20.8,13.5.4,24.2,1,32.3,11.4S131.9,36.81,128.4,44.51Z" fill="#978f83"/><path d="M107.7,24.21c-.2-.1-.7.5-1.5,1.9-6.5,11.4-30.4,40.5-44.1,43.1s-16.6.8-26-.7c14.3,5.4,19.4,21.6,13.7,30.7s-10.9,14.2-20.5,12.4c-.7-.1-1.6-.3-2.4-.4a4.51,4.51,0,0,0-1-1.4c-5.5-5.7-4.8-15.5,3.3-20.1s22.8,7.4,15-6c-3.5-5.9-5.4-5.9-13.9-6.2-6.8-.3-9.5,2.8-14.2,7.7S12.9,98,16.8,104a24.25,24.25,0,0,0,7.7,6.9c-8.2-1.3-17.4-2.2-17,1a17.48,17.48,0,0,0,1.8,2.9c5.5,7.7,17.7,13.2,27.9,11.8,17.8-2.4,27.5-9.9,36.8-26.8,5.2-9.6,15.1-24.1,23-39.1C104,40.51,108.7,24.81,107.7,24.21Z" fill="#83796a"/><path d="M34.4,128.91c-11,0-22.4-5.9-27.1-12.7-5.5-7.8-11-18.6-4-34.2,4.2-9.3,16.4-18.1,30.5-15.9,5,.8,11.9,4.4,16.3,10.8,4,5.9,5.1,13.1,3.3,20.9-3.5,15-19.6,18.4-25.1,17.2-4.7-1-11.5-4.5-15.1-10.9a17.85,17.85,0,0,1-1.3-14.8c1.8-5.3,11.6-17,24.6-13.6,5.1,1.3,9.3,5.6,11.9,12,.3.8.6,1.7.9,2.6A19.4,19.4,0,0,0,46,79.91a20.78,20.78,0,0,0-12.9-8.7c-11.8-1.8-21.8,5.4-25.2,13.1-5.9,13.1-1.8,21.8,3.5,29.2,4.7,6.6,18.1,12.4,28.3,10,16.9-4,22.3-9.6,31.6-22.3,9-12.3,23.2-37.5,30.6-56.7a2.49,2.49,0,0,1,4.8,1.3,18.3,18.3,0,0,0-.4,4.7,24.75,24.75,0,0,0,4-4.5,2.5,2.5,0,0,1,4.5,1.6c-.2,4,.7,5.2,1.2,5.4,2.2.5,8.1-4.5,10.3-9.4a2.47,2.47,0,1,1,4.7,1.5c-.1.2-.1.3-.2.5-2.6,5.8-10.3,13.6-16,12.2a5.85,5.85,0,0,1-4.3-4.4c-2.1,2-4.3,3.2-6.5,2.3a4.13,4.13,0,0,1-1.1-.7c-8,17.9-19.8,38.3-27.6,49.1-4.9,6.8-9,11.7-14.1,15.5s-11.5,6.6-20.4,8.7A34.66,34.66,0,0,1,34.4,128.91ZM31.9,80c-8.2,0-14.3,7.8-15.3,10.8a12.81,12.81,0,0,0,.9,10.8c2.6,4.7,7.9,7.6,11.9,8.5,2,.4,10.2-.4,15.4-6.1.1-.2.1-.3.2-.5,1.1-1.8,1.1-8.1-1.3-14.1-1.1-2.8-3.8-7.8-8.5-9A18.59,18.59,0,0,0,31.9,80Z" fill="#71695d"/></g></g></g></svg>