<svg xmlns="http://www.w3.org/2000/svg" width="173.09" height="106.44" viewBox="0 0 173.09 106.44"><title>Katsuo</title><g id="f9a68b83-325b-45ef-9888-a89d74d8f523" data-name="レイヤー 2"><g id="a497368c-cefd-4c9f-a995-726c402f9b7e" data-name="tamasan"><g id="b57ce7f9-973e-44f8-afe5-9a306679bce5" data-name="Katsuo"><path d="M118.91,37.64c-7.32-1.15-19.42.41-34.86,1.62s-32.22,5-28.52.61,4.95-10.23,7.66-15.65C67.55,28.38,79.54,29,84.58,29S103.05,16.2,110.73,2.47c1.84,4.88,14.21,20.14,19.77,26.8S118.91,37.64,118.91,37.64Z" fill="#7fadc6"/><path d="M55.42,44.1a3.49,3.49,0,0,1-2.5-1.76c-.39-.73-.83-2.22.72-4.05,2.13-2.52,3.41-5.76,4.77-9.19.78-2,1.58-4,2.57-6A2.44,2.44,0,0,1,64.25,22a2.49,2.49,0,0,1,.6.42c3,2.87,12.3,4.11,19.68,4,3.34,0,16.07-11,24-25.24a2.44,2.44,0,0,1,4.41.33c1.37,3.69,10.73,15.77,19.36,26.1,2.08,2.49,1.87,4.61,1.32,5.94-2,4.82-11.59,6.14-14.5,6.43a2.59,2.59,0,0,1-.62,0c-5.45-.85-14-.1-24.77.84-3,.26-6.19.54-9.54.8-4.54.37-9.32.95-13.52,1.47C62.46,44.19,57.94,44.68,55.42,44.1Zm8.75-16.24c-.43,1-.83,2-1.23,3.05a46.32,46.32,0,0,1-4.11,8.59c2.8-.1,7.38-.67,11.27-1.15,4.25-.53,9.07-1.13,13.74-1.5,3.32-.26,6.46-.53,9.5-.8,10.92-.95,19.6-1.7,25.62-.84,6.41-.69,10-2.67,10.19-3.41a2.06,2.06,0,0,0-.55-.95c-3.41-4.12-13.35-16.13-18-23.48-8,12.59-20.14,24-26,24C81.08,31.41,70.49,31.19,64.17,27.86Z" fill="#517687"/><path d="M75,87.12C74.27,89.87,61.87,97.23,59.65,95s-4.77-8.77-4-11.18S75.73,84.38,75,87.12Z" fill="#7fadc6"/><path d="M59.77,97.73a3.76,3.76,0,0,1-1.85-1c-2.55-2.55-5.76-10-4.6-13.64.83-2.64,4.48-2.77,8.28-2.51a51.28,51.28,0,0,1,10.06,1.73c1.81.53,6.63,1.93,5.7,5.44s-9.89,8.63-14,9.74A7.74,7.74,0,0,1,59.77,97.73ZM58,85.39A18.12,18.12,0,0,0,61.11,93c2.11,0,8.13-3.4,10.61-5.56C68.47,86.22,60.86,85.07,58,85.39Z" fill="#517687"/><path d="M124.63,87.08c-2.45,6.69-6.15,17.52-9.89,16.89s-9.33-9.86-9.88-13.14S127.08,80.37,124.63,87.08Z" fill="#7fadc6"/><path d="M114.05,106.32c-5.17-1.21-11-11.46-11.59-15.09-.45-2.7,2.61-4.45,3.62-5,3.85-2.19,15.78-6.45,19.79-3.06a4,4,0,0,1,1,4.76h0l-.41,1.14c-3.27,9-6.64,18.26-12.18,17.33Zm-6.61-15.2c1,3.25,5.53,9.83,7.58,10.42.28-.17,1.34-1,3.12-4.68,1.4-2.91,2.72-6.55,3.78-9.48l.22-.61a21.28,21.28,0,0,0-7.42,1.17A25.94,25.94,0,0,0,107.44,91.12Z" fill="#517687"/><path d="M170.57,46.44C169,41.14,140,31.77,126.69,29c-16.62-3.45-31.53-4.81-55.4,3.44-17.35,6-46.76,25.32-47.58,30.83-.79,5.27,3.69,8.83,12,13.12,15.52,8,34.07,13.24,67.87,13.62,28.76.33,52.19-16.6,56.67-21.4S150.39,66,150.19,63,172.12,51.73,170.57,46.44Z" fill="#d9f0f4"/><path d="M94.92,26.83a110.46,110.46,0,0,0-23.63,5.61c-17.35,6-46.76,25.3-47.58,30.82a2.08,2.08,0,0,0,0,.25,24.84,24.84,0,0,0,1,3.52c6.17-1.85,95-9.38,95-9.38s0-21.34,4-29.38A85.64,85.64,0,0,0,94.92,26.83Z" fill="#7fadc6"/><path d="M26.2,70.83l-.44-.1A2.44,2.44,0,0,1,27.08,66c4,1.12,22.53,1.81,46.07,1.7,22.49-.11,42.24-.91,46.95-1.89a2.44,2.44,0,1,1,1,4.77h0C110.43,72.84,37.84,73.54,26.2,70.83Z" fill="#8aaab8"/><path d="M31.78,74.54A20.78,20.78,0,0,1,28,73.37a2.44,2.44,0,0,1,1.88-4.5l.14.06c9.53,4.35,84.56,8.15,92.35,7.08a2.44,2.44,0,1,1,.68,4.83h0C116,81.8,50.76,79,31.78,74.54Z" fill="#8aaab8"/><path d="M60.69,88.1a111.2,111.2,0,0,1-26.07-9.53c-7.35-3.79-14.45-8.12-13.32-15.65C22,58.57,31.79,51.31,40,46c10.71-7,22.4-13.06,30.52-15.86,25.56-8.83,41.4-6.71,56.7-3.53a213.14,213.14,0,0,1,26.68,7.87c17.64,6.48,18.62,9.83,19,11.26,1.45,5-5.82,9.12-13.52,13.53-1.65.94-3.66,2.1-5.11,3,.58.09,1.17.16,1.62.21,3.36.42,6.55.81,7.46,3.32.36,1,.42,2.54-1.32,4.41-5.63,6-30,22.48-58.47,22.17C86.53,92.26,72.75,90.92,60.69,88.1Zm68-56.15-2.47-.58c-18-3.74-31.9-4.31-54.1,3.36-7.63,2.64-18.76,8.42-29,15.05C31.45,57.31,26.51,62.29,26.12,63.66c-.51,3.39,2.43,6.26,10.74,10.55,17.78,9.15,37.13,13,66.79,13.34,27.33.31,48.88-15.12,54.06-19.86-.79-.14-1.71-.25-2.38-.33-3.45-.43-7.35-.9-7.56-4.19-.19-2.76,2.95-4.56,9.2-8.14,3.21-1.83,10.59-6.07,11.22-8-.7-1.05-4.89-4-16.51-8.18A217.45,217.45,0,0,0,128.66,32Z" fill="#517687"/><path d="M126.27,88.06c-12.57-12-9.46-51.34-5.14-60.41l4.4,2.1c-4.17,8.75-5.87,45.26,4.11,54.78Z" fill="#517687"/><path d="M23.3,66.61c-2.67,5-13,14.75-18.83,15S7.21,68.19,5.92,62.11s-7.38-18.09.34-14S26,61.64,23.3,66.61Z" fill="#7fadc6"/><path d="M3.2,83.91A3.94,3.94,0,0,1,.93,82.47c-1.81-2.36-.65-6.1.83-10.82,1-3.15,2.2-7.06,1.79-9A48.7,48.7,0,0,0,2,57.5c-1.78-5.42-3.19-9.68-.65-11.8,2.13-1.8,5.08-.21,6,.3a64.19,64.19,0,0,1,13,9.29c5.16,4.94,6.87,9.13,5.09,12.45C22.63,73,11.63,83.72,4.58,84A5.32,5.32,0,0,1,3.2,83.91ZM5,50.24A57.14,57.14,0,0,0,6.66,56a58.46,58.46,0,0,1,1.65,5.63C9,64.83,7.69,69,6.41,73.1a35.25,35.25,0,0,0-1.54,6c4.7-.75,13.89-9.18,16.29-13.65h0c.32-.6-.13-2.77-4.16-6.62A59.56,59.56,0,0,0,5.1,50.31Z" fill="#517687"/><path d="M119.75,59.05c-7.36,1.41-22.11,12.34-23.43,17.24s17-2.2,24-5.18C120.41,65.81,119.64,61.64,119.75,59.05Z" fill="#7fadc6"/><path d="M96.64,80.21A3.57,3.57,0,0,1,93.89,76c0-.1,0-.21.08-.31,1.1-4.07,7.61-9.22,10.36-11.25,5.58-4.13,11.18-7,15-7.75a2.44,2.44,0,0,1,2.9,2.51,37.1,37.1,0,0,0,.22,4.09c.18,2.17.42,4.86.39,7.88a2.45,2.45,0,0,1-1.49,2.22C105.08,80.24,99.11,80.79,96.64,80.21Zm20.8-17.89a51,51,0,0,0-10.21,6,37.67,37.67,0,0,0-7.74,7.16c3.15-.4,9.9-2.46,18.42-6,0-2.16-.21-4.09-.36-5.84C117.51,63.19,117.47,62.75,117.44,62.32Z" fill="#517687"/><path d="M135.09,49.08a5.76,5.76,0,1,1,6.3,5.16A5.76,5.76,0,0,1,135.09,49.08Z" fill="#fff7f1"/><path d="M139.15,55.71a7.4,7.4,0,1,1,2.4.15A7.38,7.38,0,0,1,139.15,55.71Zm2.62-11.22a3.89,3.89,0,0,0-1.36-.09,4.13,4.13,0,1,0,4.52,3.7h0a4.08,4.08,0,0,0-1.49-2.79,4.21,4.21,0,0,0-1.68-.83Z" fill="#71695d"/><path d="M137.81,49.08a4.33,4.33,0,1,1,4.81,3.79h-.08A4.28,4.28,0,0,1,137.81,49.08Z" fill="#71695d"/><path d="M125.19,65.15a6.34,6.34,0,1,1,6.86,5.19A6.13,6.13,0,0,1,125.19,65.15Z" fill="#e47b7b"/></g></g></g></svg>