<svg xmlns="http://www.w3.org/2000/svg" width="20" height="5.55" viewBox="0 0 20 5.55"><title>MezashiShape</title><g id="bd935b74-025f-428a-ad9e-7d5173f94776" data-name="レイヤー 2"><g id="b71b9594-eb97-4e18-b59d-1c0c509d7746" data-name="レイヤー 1"><path d="M13.91,0q-1.26,0-2.64.09C7.62.32,4.52,1.14,3.21,2a.57.57,0,0,1-.63,0L.67.82A.41.41,0,0,0,.44.75.44.44,0,0,0,0,1.19L.3,2.78,0,4.36a.44.44,0,0,0,.44.44.41.41,0,0,0,.23-.07L2.6,3.56a.52.52,0,0,1,.57,0c1.27.84,4.32,1.67,8.1,1.89.91.06,1.79.09,2.62.09,3.54,0,6.11-.61,6.11-2.77S17.44,0,13.91,0Z" fill="#316285"/></g></g></svg>